<svg xmlns="http://www.w3.org/2000/svg" viewBox="0 0 1280 780" fill="none">

  <rect width="1280" height="780" rx="12" fill="#e8eef4"/>
  <rect x="0" y="0" width="1280" height="36" fill="#d5dee8"/>
  <circle cx="18" cy="18" r="5" fill="#ed6a5e"/>
  <circle cx="34" cy="18" r="5" fill="#f4bf4f"/>
  <circle cx="50" cy="18" r="5" fill="#61c554"/>
  <rect x="180" y="10" width="920" height="16" rx="8" fill="#fff"/>


  <text x="196" y="22" font-family="Segoe UI, Arial, sans-serif" font-size="10" fill="#7a8694">app.archsys.com.ar / inspecciones</text>
  <rect x="0" y="36" width="1280" height="50" fill="#156fb3"/>
  
  <rect x="20" y="54" width="18" height="2" fill="#fff"/>
  <rect x="20" y="60" width="18" height="2" fill="#fff"/>
  <rect x="20" y="66" width="18" height="2" fill="#fff"/>

  <text x="56" y="67" font-family="Segoe UI, Arial, sans-serif" font-size="15" font-weight="600" fill="#fff">Arch - Inspecciones</text>

  <text x="1180" y="67" font-family="Segoe UI, Arial, sans-serif" font-size="13" fill="#e8f2fb">j.garcia</text>
  <rect x="0" y="86" width="1280" height="92" fill="#f4f7f9"/>
  <rect x="24" y="102" width="280" height="36" rx="8" fill="#fff" stroke="#d5dee8"/>
  <text x="40" y="125" font-family="Segoe UI, Arial, sans-serif" font-size="13" fill="#9aa5b1">Buscar inspecciones...</text>
  <rect x="24" y="148" width="118" height="22" rx="11" fill="#156fb3"/>
  <text x="50" y="163" font-family="Segoe UI, Arial, sans-serif" font-size="11" fill="#fff">Todas</text>
  <rect x="150" y="148" width="148" height="22" rx="11" fill="#ffaf38"/>
  <text x="168" y="163" font-family="Segoe UI, Arial, sans-serif" font-size="11" fill="#3a2a00">Inspecci&#243;n T&#233;cnica</text>
  <rect x="306" y="148" width="136" height="22" rx="11" fill="#ed5034"/>
  <text x="326" y="163" font-family="Segoe UI, Arial, sans-serif" font-size="11" fill="#fff">Reclamo T&#233;cnico</text>
  <rect x="450" y="148" width="118" height="22" rx="11" fill="#38a5ff"/>
  <text x="470" y="163" font-family="Segoe UI, Arial, sans-serif" font-size="11" fill="#fff">Inspecci&#243;n RT</text>
  <rect x="576" y="148" width="156" height="22" rx="11" fill="#06ce9c"/>
  <text x="590" y="163" font-family="Segoe UI, Arial, sans-serif" font-size="11" fill="#083528">Prueba de Seguridad</text>
  <g transform="translate(24,196)">
    <rect width="1232" height="88" rx="10" fill="#fff" stroke="#e4e8ec"/>
    <rect width="8" height="88" rx="4" fill="#ffaf38"/>
    <text x="28" y="28" font-family="Segoe UI, Arial, sans-serif" font-size="16" font-weight="600" fill="#0c1c41">Edificio Nueva C&#243;rdoba (C&#243;rdoba)</text>
    <text x="1080" y="28" font-family="Segoe UI, Arial, sans-serif" font-size="12" fill="#7a8694">07/09/2026 09:14</text>
    <text x="28" y="52" font-family="Segoe UI, Arial, sans-serif" font-size="13" fill="#4a5560">E01: Control de puertas, nivelaci&#243;n y botonera. Sin observaciones.</text>
    <text x="28" y="74" font-family="Segoe UI, Arial, sans-serif" font-size="12" fill="#7a8694">Av. Hip&#243;lito Yrigoyen 184 - Juan Garc&#237;a</text>
  </g>
  <g transform="translate(24,296)">
    <rect width="1232" height="88" rx="10" fill="#fff" stroke="#e4e8ec"/>
    <rect width="8" height="88" rx="4" fill="#ed5034"/>
    <text x="28" y="28" font-family="Segoe UI, Arial, sans-serif" font-size="16" font-weight="600" fill="#0c1c41">Torre G&#252;emes (C&#243;rdoba)</text>
    <text x="1080" y="28" font-family="Segoe UI, Arial, sans-serif" font-size="12" fill="#7a8694">07/09/2026 08:41</text>
    <text x="28" y="52" font-family="Segoe UI, Arial, sans-serif" font-size="13" fill="#4a5560">E02: Ruido en cuarto de m&#225;quinas. Se programa visita de reclamo t&#233;cnico.</text>
    <text x="28" y="74" font-family="Segoe UI, Arial, sans-serif" font-size="12" fill="#7a8694">Bv. San Juan 650 - Ana P&#233;rez</text>
  </g>
  <g transform="translate(24,396)">
    <rect width="1232" height="88" rx="10" fill="#fff" stroke="#e4e8ec"/>
    <rect width="8" height="88" rx="4" fill="#38a5ff"/>
    <text x="28" y="28" font-family="Segoe UI, Arial, sans-serif" font-size="16" font-weight="600" fill="#0c1c41">Residencial Alberdi (C&#243;rdoba)</text>
    <text x="1080" y="28" font-family="Segoe UI, Arial, sans-serif" font-size="12" fill="#7a8694">06/09/2026 16:22</text>
    <text x="28" y="52" font-family="Segoe UI, Arial, sans-serif" font-size="13" fill="#4a5560">E01: Inspecci&#243;n RT. Documentaci&#243;n y normativa al d&#237;a.</text>
    <text x="28" y="74" font-family="Segoe UI, Arial, sans-serif" font-size="12" fill="#7a8694">Av. Col&#243;n 1200 - Luis Romero</text>
  </g>
  <g transform="translate(24,496)">
    <rect width="1232" height="88" rx="10" fill="#fff" stroke="#e4e8ec"/>
    <rect width="8" height="88" rx="4" fill="#06ce9c"/>
    <text x="28" y="28" font-family="Segoe UI, Arial, sans-serif" font-size="16" font-weight="600" fill="#0c1c41">Edificio General Paz (C&#243;rdoba)</text>
    <text x="1080" y="28" font-family="Segoe UI, Arial, sans-serif" font-size="12" fill="#7a8694">06/09/2026 11:05</text>
    <text x="28" y="52" font-family="Segoe UI, Arial, sans-serif" font-size="13" fill="#4a5560">E03: Prueba de seguridad anual aprobada. Freno y limitador OK.</text>
    <text x="28" y="74" font-family="Segoe UI, Arial, sans-serif" font-size="12" fill="#7a8694">Av. General Paz 210 - Marta D&#237;az</text>
  </g>
  <g transform="translate(24,596)">
    <rect width="1232" height="88" rx="10" fill="#fff" stroke="#e4e8ec"/>
    <rect width="8" height="88" rx="4" fill="#ffaf38"/>
    <text x="28" y="28" font-family="Segoe UI, Arial, sans-serif" font-size="16" font-weight="600" fill="#0c1c41">Torre Centro (C&#243;rdoba)</text>
    <text x="1080" y="28" font-family="Segoe UI, Arial, sans-serif" font-size="12" fill="#7a8694">05/09/2026 15:48</text>
    <text x="28" y="52" font-family="Segoe UI, Arial, sans-serif" font-size="13" fill="#4a5560">E01: Lubricaci&#243;n de gu&#237;as y revisi&#243;n de cables. Pr&#243;ximo control en 30 d&#237;as.</text>
    <text x="28" y="74" font-family="Segoe UI, Arial, sans-serif" font-size="12" fill="#7a8694">25 de Mayo 180 - Juan Garc&#237;a</text>
  </g>
  <text x="640" y="760" text-anchor="middle" font-family="Segoe UI, Arial, sans-serif" font-size="11" fill="#9aa5b1">Captura ilustrativa - reemplazar por imagen real</text>
</svg>
