<svg xmlns="http://www.w3.org/2000/svg" viewBox="0 0 1280 780" fill="none">

  <rect width="1280" height="780" rx="12" fill="#e8eef4"/>
  <rect x="0" y="0" width="1280" height="36" fill="#d5dee8"/>
  <circle cx="18" cy="18" r="5" fill="#ed6a5e"/>
  <circle cx="34" cy="18" r="5" fill="#f4bf4f"/>
  <circle cx="50" cy="18" r="5" fill="#61c554"/>
  <rect x="180" y="10" width="920" height="16" rx="8" fill="#fff"/>


  <text x="196" y="22" font-family="Segoe UI, Arial, sans-serif" font-size="10" fill="#7a8694">app.archsys.com.ar / estadisticas / mensuales</text>
  <rect x="0" y="36" width="1280" height="50" fill="#156fb3"/>
  
  <rect x="20" y="54" width="18" height="2" fill="#fff"/>
  <rect x="20" y="60" width="18" height="2" fill="#fff"/>
  <rect x="20" y="66" width="18" height="2" fill="#fff"/>

  <text x="56" y="67" font-family="Segoe UI, Arial, sans-serif" font-size="15" font-weight="600" fill="#fff">Arch - Estad&#237;sticas y reportes</text>

  <rect x="24" y="106" width="292" height="100" rx="10" fill="#fff" stroke="#e4e8ec"/>
  <text x="44" y="136" font-family="Segoe UI, Arial, sans-serif" font-size="12" fill="#7a8694">INSPECCIONES DEL MES</text>
  <text x="44" y="176" font-family="Segoe UI, Arial, sans-serif" font-size="32" font-weight="700" fill="#123e6a">1.248</text>
  <rect x="332" y="106" width="292" height="100" rx="10" fill="#fff" stroke="#e4e8ec"/>
  <text x="352" y="136" font-family="Segoe UI, Arial, sans-serif" font-size="12" fill="#7a8694">RECLAMOS CERRADOS</text>
  <text x="352" y="176" font-family="Segoe UI, Arial, sans-serif" font-size="32" font-weight="700" fill="#ed5034">186</text>
  <rect x="640" y="106" width="292" height="100" rx="10" fill="#fff" stroke="#e4e8ec"/>
  <text x="660" y="136" font-family="Segoe UI, Arial, sans-serif" font-size="12" fill="#7a8694">PRUEBAS DE SEGURIDAD</text>
  <text x="660" y="176" font-family="Segoe UI, Arial, sans-serif" font-size="32" font-weight="700" fill="#06ce9c">94</text>
  <rect x="948" y="106" width="308" height="100" rx="10" fill="#fff" stroke="#e4e8ec"/>
  <text x="968" y="136" font-family="Segoe UI, Arial, sans-serif" font-size="12" fill="#7a8694">CUMPLIMIENTO</text>
  <text x="968" y="176" font-family="Segoe UI, Arial, sans-serif" font-size="32" font-weight="700" fill="#156fb3">98,4%</text>
  <rect x="24" y="226" width="800" height="360" rx="10" fill="#fff" stroke="#e4e8ec"/>
  <text x="44" y="258" font-family="Segoe UI, Arial, sans-serif" font-size="15" font-weight="600" fill="#0c1c41">Inspecciones por semana</text>
  <polyline points="80,520 180,470 280,430 380,390 480,410 580,340 680,300 760,280" fill="none" stroke="#156fb3" stroke-width="3"/>
  <circle cx="80" cy="520" r="5" fill="#156fb3"/>
  <circle cx="180" cy="470" r="5" fill="#156fb3"/>
  <circle cx="280" cy="430" r="5" fill="#156fb3"/>
  <circle cx="380" cy="390" r="5" fill="#156fb3"/>
  <circle cx="480" cy="410" r="5" fill="#156fb3"/>
  <circle cx="580" cy="340" r="5" fill="#156fb3"/>
  <circle cx="680" cy="300" r="5" fill="#156fb3"/>
  <circle cx="760" cy="280" r="5" fill="#156fb3"/>
  <rect x="844" y="226" width="412" height="360" rx="10" fill="#fff" stroke="#e4e8ec"/>
  <text x="864" y="258" font-family="Segoe UI, Arial, sans-serif" font-size="15" font-weight="600" fill="#0c1c41">Distribuci&#243;n por tipo</text>
  <rect x="864" y="290" width="220" height="16" rx="4" fill="#ffaf38"/>
  <text x="1096" y="303" font-family="Segoe UI, Arial, sans-serif" font-size="12" fill="#1d2a36">T&#233;cnica 62%</text>
  <rect x="864" y="330" width="110" height="16" rx="4" fill="#ed5034"/>
  <text x="986" y="343" font-family="Segoe UI, Arial, sans-serif" font-size="12" fill="#1d2a36">Reclamo 15%</text>
  <rect x="864" y="370" width="150" height="16" rx="4" fill="#38a5ff"/>
  <text x="1026" y="383" font-family="Segoe UI, Arial, sans-serif" font-size="12" fill="#1d2a36">RT 15%</text>
  <rect x="864" y="410" width="80" height="16" rx="4" fill="#06ce9c"/>
  <text x="956" y="423" font-family="Segoe UI, Arial, sans-serif" font-size="12" fill="#1d2a36">Seguridad 8%</text>
  <rect x="864" y="470" width="352" height="86" rx="8" fill="#f4f7f9"/>
  <text x="884" y="504" font-family="Segoe UI, Arial, sans-serif" font-size="13" fill="#1d2a36">Exportar reporte de edificios</text>
  <rect x="884" y="518" width="140" height="26" rx="6" fill="#10385e"/>
  <text x="954" y="536" text-anchor="middle" font-family="Segoe UI, Arial, sans-serif" font-size="12" fill="#fff">Generar PDF</text>
  <rect x="24" y="606" width="1232" height="130" rx="10" fill="#fff" stroke="#e4e8ec"/>
  <text x="44" y="638" font-family="Segoe UI, Arial, sans-serif" font-size="15" font-weight="600" fill="#0c1c41">Reportes disponibles</text>
  <rect x="44" y="656" width="240" height="56" rx="8" fill="#f4f7f9"/>
  <text x="64" y="690" font-family="Segoe UI, Arial, sans-serif" font-size="13" fill="#123e6a">Por edificios</text>
  <rect x="300" y="656" width="240" height="56" rx="8" fill="#f4f7f9"/>
  <text x="320" y="690" font-family="Segoe UI, Arial, sans-serif" font-size="13" fill="#123e6a">Por administraciones</text>
  <rect x="556" y="656" width="240" height="56" rx="8" fill="#f4f7f9"/>
  <text x="576" y="690" font-family="Segoe UI, Arial, sans-serif" font-size="13" fill="#123e6a">Por usuarios / t&#233;cnicos</text>
  <rect x="812" y="656" width="240" height="56" rx="8" fill="#f4f7f9"/>
  <text x="832" y="690" font-family="Segoe UI, Arial, sans-serif" font-size="13" fill="#123e6a">Estad&#237;sticas anuales</text>
  <text x="640" y="760" text-anchor="middle" font-family="Segoe UI, Arial, sans-serif" font-size="11" fill="#9aa5b1">Captura ilustrativa - reemplazar por imagen real</text>
</svg>
